# xmcd
#
# Track frame offsets:
#	150
#	19197
#	34425
#	65870
#	82057
#	98185
#	114340
#	132215
#	147180
#	163922
#	180172
#
# Disc length: 2584 seconds
#
# Revision: 1
# Processed by: cddbd v1.5.1PL0 Copyright (c) Steve Scherf et al.
# Submitted via: audiograbber 1.82.02
#
DISCID=980a160b
DTITLE=Bering Strait - Pages
DYEAR=2005
DGENRE=Country
TTITLE0=Safe In My Lover's Arms
TTITLE1=Oy, Moroz-Moroz
TTITLE2=From Ankara to Izmir
TTITLE3=Long Time Comin'
TTITLE4=Just Imagine
TTITLE5=Pages
TTITLE6=You Make Lovin' Fun
TTITLE7=Cruel Man
TTITLE8=What's For Dinner
TTITLE9=Choose Your Partner
TTITLE10=It Hurts Just A Little
EXTD=
EXTT0=
EXTT1=
EXTT2=
EXTT3=
EXTT4=
EXTT5=
EXTT6=
EXTT7=
EXTT8=
EXTT9=
EXTT10=
PLAYORDER=
